<svg xmlns="http://www.w3.org/2000/svg" xmlns:xlink="http://www.w3.org/1999/xlink" x="0" y="0" width="660.5333251953125" height="301.5333251953125" style="
        width:660.5333251953125px;
        height:301.5333251953125px;
        background: #FFF;
        fill: none;
">
        
        
        <svg xmlns="http://www.w3.org/2000/svg" class="role-diagram-draw-area"><g class="shapes-region" style="stroke: black; fill: none;"><g class="composite-shape"><path class="real" d=" M80,101 L220,101 L220,201 L80,201 Z" style="stroke-width: 1px; stroke: rgb(0, 0, 0); stroke-opacity: 1; fill: none; fill-opacity: 1;"/></g><g class="composite-shape"><path class="real" d=" M380,101 L520,101 L520,201 L380,201 Z" style="stroke-width: 1px; stroke: rgb(0, 0, 0); stroke-opacity: 1; fill: none; fill-opacity: 1;"/></g><g class="arrow-line"><path class="connection real" stroke-dasharray="" d="  M380,160 L222,160" style="stroke: rgb(208, 2, 27); stroke-opacity: 1; stroke-width: 1px; fill: none; fill-opacity: 1;"/><g stroke="rgb(208,2,27)" stroke-opacity="1" transform="matrix(1,-2.4492935982947064e-16,2.4492935982947064e-16,1,220,160)" style="stroke: rgb(208, 2, 27); stroke-width: 1px;"><path d=" M10.93,-3.29 Q4.96,-0.45 0,0 Q4.96,0.45 10.93,3.29"/></g></g><g/></g><g/><g/><g/></svg>
        <svg xmlns="http://www.w3.org/2000/svg" xmlns:xlink="http://www.w3.org/1999/xlink" width="659" height="300" style="width:659px;height:300px;font-family:Asana-Math, Asana;background:#FFF;"><g><g><g><text x="403.76666259765625" y="74.06668090820312" style="white-space:pre;stroke:none;fill:rgb(0,0,0);fill-opacity:1;font-size:15px;font-family:Arial, Helvetica, sans-serif;font-weight:400;font-style:normal;dominant-baseline:text-before-edge;text-decoration:rgb(0, 0, 0);">Adversary </text></g><g><g><g><g><g transform="matrix(1,0,0,1,475.5,88)"><path transform="matrix(0.017,0,0,-0.017,0,0)" d="M567 55C567 39 552 30 524 28L480 25L480 -3C582 0 582 0 602 0C622 0 622 0 724 -3L724 25L698 28C651 35 650 35 642 80L555 705L509 705L136 112C100 56 82 40 48 32L28 27L28 -3C120 0 120 0 140 0C159 0 161 0 247 -3L247 25L195 28C179 29 164 38 164 47C164 55 171 69 190 102L292 277L538 277L563 89L563 86C563 84 567 69 567 55ZM496 601L533 313L317 313Z" stroke="rgb(0,0,0)" stroke-opacity="1" stroke-width="8" fill="rgb(0,0,0)" fill-opacity="1"></path></g></g></g></g></g></g></g><g><g><g><text x="195.76666259765625" y="44.066680908203125" style="white-space:pre;stroke:none;fill:rgb(0,0,0);fill-opacity:1;font-size:15px;font-family:Arial, Helvetica, sans-serif;font-weight:400;font-style:normal;dominant-baseline:text-before-edge;text-decoration:rgb(0, 0, 0);">Both parties have the hash function </text></g><g><g><g><g><g transform="matrix(1,0,0,1,435.2166748046875,58)"><path transform="matrix(0.017,0,0,-0.017,0,0)" d="M221 385L263 613C270 652 277 658 314 661L356 664L359 692L335 692L245 689C229 689 211 689 168 690L104 692L101 664L148 662C172 661 183 653 183 635C183 621 179 590 174 559L100 125C83 33 82 32 42 28L1 25L-3 -3L39 -2C87 -1 110 0 129 0L226 -3L252 -3L255 25L206 28C179 30 170 37 170 58C170 67 171 74 174 93L216 340L277 341C339 342 381 343 400 343C419 343 460 342 523 341L584 340L544 125C535 76 528 48 523 42C519 34 508 30 486 28L436 25L432 -3L488 -2C532 -1 562 0 573 0C589 0 620 -1 663 -2L705 -3L708 25L650 28C624 29 614 37 614 58C614 67 615 76 618 93L710 613C717 652 723 657 761 661L797 664L800 692L784 692L693 689C678 689 657 689 613 690L550 692L547 664L595 662C619 661 630 653 630 635C630 621 626 589 621 559L591 385Z" stroke="rgb(0,0,0)" stroke-opacity="1" stroke-width="8" fill="rgb(0,0,0)" fill-opacity="1"></path></g></g></g></g></g></g></g><g><g><g><text x="111.76666259765625" y="74.06668090820312" style="white-space:pre;stroke:none;fill:rgb(0,0,0);fill-opacity:1;font-size:15px;font-family:Arial, Helvetica, sans-serif;font-weight:400;font-style:normal;dominant-baseline:text-before-edge;text-decoration:rgb(0, 0, 0);">Challenger </text></g><g><g><g><g><g transform="matrix(1,0,0,1,188.5333251953125,88)"><path transform="matrix(0.017,0,0,-0.017,0,0)" d="M45 284C45 90 152 -18 343 -18C439 -18 510 5 600 67C600 67 610 103 610 103C610 103 600 110 600 110C506 53 454 35 376 35C219 35 133 131 133 309C133 447 190 653 418 653C489 653 541 639 597 603L597 519L624 519C629 576 637 619 651 665C575 694 518 706 456 706C276 706 45 578 45 284Z" stroke="rgb(0,0,0)" stroke-opacity="1" stroke-width="8" fill="rgb(0,0,0)" fill-opacity="1"></path></g></g></g></g></g></g></g><g><g><g><g><g><g><g transform="matrix(1,0,0,1,393.76666259765625,155.05)"><path transform="matrix(0.015300000000000001,0,0,-0.015300000000000001,0,0)" d="M567 55C567 39 552 30 524 28L480 25L480 -3C582 0 582 0 602 0C622 0 622 0 724 -3L724 25L698 28C651 35 650 35 642 80L555 705L509 705L136 112C100 56 82 40 48 32L28 27L28 -3C120 0 120 0 140 0C159 0 161 0 247 -3L247 25L195 28C179 29 164 38 164 47C164 55 171 69 190 102L292 277L538 277L563 89L563 86C563 84 567 69 567 55ZM496 601L533 313L317 313Z" stroke="rgb(0,0,0)" stroke-opacity="1" stroke-width="8" fill="rgb(0,0,0)" fill-opacity="1"></path></g></g></g></g></g><g><text x="405.25" y="142.816650390625" style="white-space:pre;stroke:none;fill:rgb(0,0,0);fill-opacity:1;font-size:13.5px;font-family:Arial, Helvetica, sans-serif;font-weight:400;font-style:normal;dominant-baseline:text-before-edge;text-decoration:rgb(0, 0, 0);"> picks messages</text></g></g><g><g><text x="426.25" y="162.98333740234375" style="white-space:pre;stroke:none;fill:rgb(0,0,0);fill-opacity:1;font-size:13.5px;font-family:Arial, Helvetica, sans-serif;font-weight:400;font-style:normal;dominant-baseline:text-before-edge;text-decoration:rgb(0, 0, 0);"> </text></g><g><g><g><g><g transform="matrix(1,0,0,1,430,175.21668701171876)"><path transform="matrix(0.015300000000000001,0,0,-0.015300000000000001,0,0)" d="M730 103L704 86C675 67 653 56 643 56C636 56 630 65 630 76C630 86 632 95 637 116L712 413C716 430 719 446 719 454C719 471 709 482 693 482C664 482 626 464 565 421C502 376 467 341 418 272L448 409C452 429 455 444 455 451C455 470 445 482 429 482C399 482 353 460 298 418C254 384 234 363 169 275L202 408C206 424 208 439 208 451C208 470 199 482 185 482C164 482 126 461 52 408L24 388L31 368C68 391 103 414 110 414C121 414 128 404 128 389C128 338 87 145 46 2L49 -9L117 6L139 108C163 219 190 278 245 338C287 384 332 414 360 414C367 414 371 406 371 393C371 358 349 244 308 69L292 2L297 -9L366 6L387 113C403 194 437 269 481 318C536 379 586 414 618 414C626 414 631 405 631 389C631 365 628 351 606 264C566 105 550 84 550 31C550 6 561 -9 580 -9C606 -9 642 12 740 85Z" stroke="rgb(208,2,27)" stroke-opacity="1" stroke-width="8" fill="rgb(208,2,27)" fill-opacity="1"></path></g></g><g><g transform="matrix(1,0,0,1,441.88330078125,175.21668701171876)"><path transform="matrix(0.015300000000000001,0,0,-0.015300000000000001,0,0)" d="M204 123C177 114 159 108 106 93C99 17 74 -48 16 -144L30 -155L71 -136C152 -31 190 32 218 109Z" stroke="rgb(208,2,27)" stroke-opacity="1" stroke-width="8" fill="rgb(208,2,27)" fill-opacity="1"></path></g></g><g><g transform="matrix(1,0,0,1,448.76666259765625,175.21668701171876)"><path transform="matrix(0.015300000000000001,0,0,-0.015300000000000001,0,0)" d="" stroke="rgb(208,2,27)" stroke-opacity="1" stroke-width="8" fill="rgb(208,2,27)" fill-opacity="1"></path></g></g></g></g></g><g><g><g><g><g transform="matrix(1,0,0,1,452.58331298828125,175.21668701171876)"><path transform="matrix(0.015300000000000001,0,0,-0.015300000000000001,0,0)" d="M730 103L704 86C675 67 653 56 643 56C636 56 630 65 630 76C630 86 632 95 637 116L712 413C716 430 719 446 719 454C719 471 709 482 693 482C664 482 626 464 565 421C502 376 467 341 418 272L448 409C452 429 455 444 455 451C455 470 445 482 429 482C399 482 353 460 298 418C254 384 234 363 169 275L202 408C206 424 208 439 208 451C208 470 199 482 185 482C164 482 126 461 52 408L24 388L31 368C68 391 103 414 110 414C121 414 128 404 128 389C128 338 87 145 46 2L49 -9L117 6L139 108C163 219 190 278 245 338C287 384 332 414 360 414C367 414 371 406 371 393C371 358 349 244 308 69L292 2L297 -9L366 6L387 113C403 194 437 269 481 318C536 379 586 414 618 414C626 414 631 405 631 389C631 365 628 351 606 264C566 105 550 84 550 31C550 6 561 -9 580 -9C606 -9 642 12 740 85ZM881 470C938 543 976 610 1010 696L997 709C961 697 951 694 900 679C894 599 870 533 822 456L837 446Z" stroke="rgb(208,2,27)" stroke-opacity="1" stroke-width="8" fill="rgb(208,2,27)" fill-opacity="1"></path></g></g></g></g></g></g></g><g><g><g><g transform="matrix(1,0,0,1,284.7833251953125,147)"><path transform="matrix(0.017,0,0,-0.017,0,0)" d="M730 103L704 86C675 67 653 56 643 56C636 56 630 65 630 76C630 86 632 95 637 116L712 413C716 430 719 446 719 454C719 471 709 482 693 482C664 482 626 464 565 421C502 376 467 341 418 272L448 409C452 429 455 444 455 451C455 470 445 482 429 482C399 482 353 460 298 418C254 384 234 363 169 275L202 408C206 424 208 439 208 451C208 470 199 482 185 482C164 482 126 461 52 408L24 388L31 368C68 391 103 414 110 414C121 414 128 404 128 389C128 338 87 145 46 2L49 -9L117 6L139 108C163 219 190 278 245 338C287 384 332 414 360 414C367 414 371 406 371 393C371 358 349 244 308 69L292 2L297 -9L366 6L387 113C403 194 437 269 481 318C536 379 586 414 618 414C626 414 631 405 631 389C631 365 628 351 606 264C566 105 550 84 550 31C550 6 561 -9 580 -9C606 -9 642 12 740 85Z" stroke="rgb(208,2,27)" stroke-opacity="1" stroke-width="8" fill="rgb(208,2,27)" fill-opacity="1"></path></g></g><g><g transform="matrix(1,0,0,1,298,147)"><path transform="matrix(0.017,0,0,-0.017,0,0)" d="M204 123C177 114 159 108 106 93C99 17 74 -48 16 -144L30 -155L71 -136C152 -31 190 32 218 109Z" stroke="rgb(208,2,27)" stroke-opacity="1" stroke-width="8" fill="rgb(208,2,27)" fill-opacity="1"></path></g></g><g><g transform="matrix(1,0,0,1,305.61669921875,147)"><path transform="matrix(0.017,0,0,-0.017,0,0)" d="M979 103L953 86C924 67 902 56 892 56C885 56 879 65 879 76C879 86 881 95 886 116L961 413C965 430 968 446 968 454C968 471 958 482 942 482C913 482 875 464 814 421C751 376 716 341 667 272L697 409C701 429 704 444 704 451C704 470 694 482 678 482C648 482 602 460 547 418C503 384 483 363 418 275L451 408C455 424 457 439 457 451C457 470 448 482 434 482C413 482 375 461 301 408L273 388L280 368C317 391 352 414 359 414C370 414 377 404 377 389C377 338 336 145 295 2L298 -9L366 6L388 108C412 219 439 278 494 338C536 384 581 414 609 414C616 414 620 406 620 393C620 358 598 244 557 69L541 2L546 -9L615 6L636 113C652 194 686 269 730 318C785 379 835 414 867 414C875 414 880 405 880 389C880 365 877 351 855 264C815 105 799 84 799 31C799 6 810 -9 829 -9C855 -9 891 12 989 85ZM1130 470C1187 543 1225 610 1259 696L1246 709C1210 697 1200 694 1149 679C1143 599 1119 533 1071 456L1086 446Z" stroke="rgb(208,2,27)" stroke-opacity="1" stroke-width="8" fill="rgb(208,2,27)" fill-opacity="1"></path></g></g></g></g><g><g><g><g><g><g><g transform="matrix(1,0,0,1,241.76666259765625,217)"><path transform="matrix(0.017,0,0,-0.017,0,0)" d="M567 55C567 39 552 30 524 28L480 25L480 -3C582 0 582 0 602 0C622 0 622 0 724 -3L724 25L698 28C651 35 650 35 642 80L555 705L509 705L136 112C100 56 82 40 48 32L28 27L28 -3C120 0 120 0 140 0C159 0 161 0 247 -3L247 25L195 28C179 29 164 38 164 47C164 55 171 69 190 102L292 277L538 277L563 89L563 86C563 84 567 69 567 55ZM496 601L533 313L317 313Z" stroke="rgb(0,0,0)" stroke-opacity="1" stroke-width="8" fill="rgb(0,0,0)" fill-opacity="1"></path></g></g></g></g></g><g><text x="254.54998779296875" y="203.066650390625" style="white-space:pre;stroke:none;fill:rgb(0,0,0);fill-opacity:1;font-size:15px;font-family:Arial, Helvetica, sans-serif;font-weight:400;font-style:normal;dominant-baseline:text-before-edge;text-decoration:rgb(0, 0, 0);"> wins if </text></g><g><g><g><g><g transform="matrix(1,0,0,1,304.566650390625,217)"><path transform="matrix(0.017,0,0,-0.017,0,0)" d="M730 103L704 86C675 67 653 56 643 56C636 56 630 65 630 76C630 86 632 95 637 116L712 413C716 430 719 446 719 454C719 471 709 482 693 482C664 482 626 464 565 421C502 376 467 341 418 272L448 409C452 429 455 444 455 451C455 470 445 482 429 482C399 482 353 460 298 418C254 384 234 363 169 275L202 408C206 424 208 439 208 451C208 470 199 482 185 482C164 482 126 461 52 408L24 388L31 368C68 391 103 414 110 414C121 414 128 404 128 389C128 338 87 145 46 2L49 -9L117 6L139 108C163 219 190 278 245 338C287 384 332 414 360 414C367 414 371 406 371 393C371 358 349 244 308 69L292 2L297 -9L366 6L387 113C403 194 437 269 481 318C536 379 586 414 618 414C626 414 631 405 631 389C631 365 628 351 606 264C566 105 550 84 550 31C550 6 561 -9 580 -9C606 -9 642 12 740 85ZM881 470C938 543 976 610 1010 696L997 709C961 697 951 694 900 679C894 599 870 533 822 456L837 446Z" stroke="rgb(208,2,27)" stroke-opacity="1" stroke-width="8" fill="rgb(208,2,27)" fill-opacity="1"></path></g></g><g><g transform="matrix(1,0,0,1,322.48333740234375,217)"><path transform="matrix(0.017,0,0,-0.017,0,0)" d="" stroke="rgb(0,0,0)" stroke-opacity="1" stroke-width="8" fill="rgb(0,0,0)" fill-opacity="1"></path></g></g><g><g transform="matrix(1,0,0,1,331.816650390625,217)"><path transform="matrix(0.017,0,0,-0.017,0,0)" d="M604 135L604 194L333 194L394 348L604 348L604 407L418 407L493 596L436 596L361 406L65 406L65 347L337 347L276 193L65 193L65 134L252 134L177 -55L234 -55L308 135Z" stroke="rgb(0,0,0)" stroke-opacity="1" stroke-width="8" fill="rgb(0,0,0)" fill-opacity="1"></path></g></g><g><g transform="matrix(1,0,0,1,348.2833251953125,217)"><path transform="matrix(0.017,0,0,-0.017,0,0)" d="M730 103L704 86C675 67 653 56 643 56C636 56 630 65 630 76C630 86 632 95 637 116L712 413C716 430 719 446 719 454C719 471 709 482 693 482C664 482 626 464 565 421C502 376 467 341 418 272L448 409C452 429 455 444 455 451C455 470 445 482 429 482C399 482 353 460 298 418C254 384 234 363 169 275L202 408C206 424 208 439 208 451C208 470 199 482 185 482C164 482 126 461 52 408L24 388L31 368C68 391 103 414 110 414C121 414 128 404 128 389C128 338 87 145 46 2L49 -9L117 6L139 108C163 219 190 278 245 338C287 384 332 414 360 414C367 414 371 406 371 393C371 358 349 244 308 69L292 2L297 -9L366 6L387 113C403 194 437 269 481 318C536 379 586 414 618 414C626 414 631 405 631 389C631 365 628 351 606 264C566 105 550 84 550 31C550 6 561 -9 580 -9C606 -9 642 12 740 85Z" stroke="rgb(208,2,27)" stroke-opacity="1" stroke-width="8" fill="rgb(208,2,27)" fill-opacity="1"></path></g></g></g></g></g><g><text x="361.5" y="203.066650390625" style="white-space:pre;stroke:none;fill:rgb(0,0,0);fill-opacity:1;font-size:15px;font-family:Arial, Helvetica, sans-serif;font-weight:400;font-style:normal;dominant-baseline:text-before-edge;text-decoration:rgb(0, 0, 0);"> </text></g></g><g><g><g><g><g><g transform="matrix(1,0,0,1,241.76666259765625,239.23333740234375)"><path transform="matrix(0.017,0,0,-0.017,0,0)" d="M221 385L263 613C270 652 277 658 314 661L356 664L359 692L335 692L245 689C229 689 211 689 168 690L104 692L101 664L148 662C172 661 183 653 183 635C183 621 179 590 174 559L100 125C83 33 82 32 42 28L1 25L-3 -3L39 -2C87 -1 110 0 129 0L226 -3L252 -3L255 25L206 28C179 30 170 37 170 58C170 67 171 74 174 93L216 340L277 341C339 342 381 343 400 343C419 343 460 342 523 341L584 340L544 125C535 76 528 48 523 42C519 34 508 30 486 28L436 25L432 -3L488 -2C532 -1 562 0 573 0C589 0 620 -1 663 -2L705 -3L708 25L650 28C624 29 614 37 614 58C614 67 615 76 618 93L710 613C717 652 723 657 761 661L797 664L800 692L784 692L693 689C678 689 657 689 613 690L550 692L547 664L595 662C619 661 630 653 630 635C630 621 626 589 621 559L591 385Z" stroke="rgb(0,0,0)" stroke-opacity="1" stroke-width="8" fill="rgb(0,0,0)" fill-opacity="1"></path></g></g><g><g transform="matrix(1,0,0,1,254.98333740234375,239)"><path transform="matrix(0.017,0,0,-0.017,0,0)" d="M146 266C146 526 243 632 301 700L282 726C225 675 60 542 60 266C60 159 85 58 133 -32C168 -99 200 -138 282 -215L301 -194C255 -137 146 -15 146 266Z" stroke="rgb(0,0,0)" stroke-opacity="1" stroke-width="8" fill="rgb(0,0,0)" fill-opacity="1"></path></g></g><g><g transform="matrix(1,0,0,1,260.6500244140625,239.23333740234375)"><path transform="matrix(0.017,0,0,-0.017,0,0)" d="M730 103L704 86C675 67 653 56 643 56C636 56 630 65 630 76C630 86 632 95 637 116L712 413C716 430 719 446 719 454C719 471 709 482 693 482C664 482 626 464 565 421C502 376 467 341 418 272L448 409C452 429 455 444 455 451C455 470 445 482 429 482C399 482 353 460 298 418C254 384 234 363 169 275L202 408C206 424 208 439 208 451C208 470 199 482 185 482C164 482 126 461 52 408L24 388L31 368C68 391 103 414 110 414C121 414 128 404 128 389C128 338 87 145 46 2L49 -9L117 6L139 108C163 219 190 278 245 338C287 384 332 414 360 414C367 414 371 406 371 393C371 358 349 244 308 69L292 2L297 -9L366 6L387 113C403 194 437 269 481 318C536 379 586 414 618 414C626 414 631 405 631 389C631 365 628 351 606 264C566 105 550 84 550 31C550 6 561 -9 580 -9C606 -9 642 12 740 85ZM881 470C938 543 976 610 1010 696L997 709C961 697 951 694 900 679C894 599 870 533 822 456L837 446Z" stroke="rgb(208,2,27)" stroke-opacity="1" stroke-width="8" fill="rgb(208,2,27)" fill-opacity="1"></path></g></g><g><g transform="matrix(1,0,0,1,278.566650390625,239)"><path transform="matrix(0.017,0,0,-0.017,0,0)" d="M51 726L32 700C87 636 187 526 187 266C187 -10 83 -131 32 -194L51 -215C104 -165 273 -23 273 265C273 542 108 675 51 726Z" stroke="rgb(0,0,0)" stroke-opacity="1" stroke-width="8" fill="rgb(0,0,0)" fill-opacity="1"></path></g></g><g><g transform="matrix(1,0,0,1,284.23333740234375,239.23333740234375)"><path transform="matrix(0.017,0,0,-0.017,0,0)" d="" stroke="rgb(0,0,0)" stroke-opacity="1" stroke-width="8" fill="rgb(0,0,0)" fill-opacity="1"></path></g></g><g><g transform="matrix(1,0,0,1,293.566650390625,239.23333740234375)"><path transform="matrix(0.017,0,0,-0.017,0,0)" d="M604 347L604 406L65 406L65 347ZM604 134L604 193L65 193L65 134Z" stroke="rgb(0,0,0)" stroke-opacity="1" stroke-width="8" fill="rgb(0,0,0)" fill-opacity="1"></path></g></g><g><g transform="matrix(1,0,0,1,310,239.23333740234375)"><path transform="matrix(0.017,0,0,-0.017,0,0)" d="M470 385L512 613C519 652 526 658 563 661L605 664L608 692L584 692L494 689C478 689 460 689 417 690L353 692L350 664L397 662C421 661 432 653 432 635C432 621 428 590 423 559L349 125C332 33 331 32 291 28L250 25L246 -3L288 -2C336 -1 359 0 378 0L475 -3L501 -3L504 25L455 28C428 30 419 37 419 58C419 67 420 74 423 93L465 340L526 341C588 342 630 343 649 343C668 343 709 342 772 341L833 340L793 125C784 76 777 48 772 42C768 34 757 30 735 28L685 25L681 -3L737 -2C781 -1 811 0 822 0C838 0 869 -1 912 -2L954 -3L957 25L899 28C873 29 863 37 863 58C863 67 864 76 867 93L959 613C966 652 972 657 1010 661L1046 664L1049 692L1033 692L942 689C927 689 906 689 862 690L799 692L796 664L844 662C868 661 879 653 879 635C879 621 875 589 870 559L840 385Z" stroke="rgb(0,0,0)" stroke-opacity="1" stroke-width="8" fill="rgb(0,0,0)" fill-opacity="1"></path></g></g><g><g transform="matrix(1,0,0,1,327.45001220703125,239)"><path transform="matrix(0.017,0,0,-0.017,0,0)" d="M146 266C146 526 243 632 301 700L282 726C225 675 60 542 60 266C60 159 85 58 133 -32C168 -99 200 -138 282 -215L301 -194C255 -137 146 -15 146 266Z" stroke="rgb(0,0,0)" stroke-opacity="1" stroke-width="8" fill="rgb(0,0,0)" fill-opacity="1"></path></g></g><g><g transform="matrix(1,0,0,1,333.11669921875,239.23333740234375)"><path transform="matrix(0.017,0,0,-0.017,0,0)" d="M730 103L704 86C675 67 653 56 643 56C636 56 630 65 630 76C630 86 632 95 637 116L712 413C716 430 719 446 719 454C719 471 709 482 693 482C664 482 626 464 565 421C502 376 467 341 418 272L448 409C452 429 455 444 455 451C455 470 445 482 429 482C399 482 353 460 298 418C254 384 234 363 169 275L202 408C206 424 208 439 208 451C208 470 199 482 185 482C164 482 126 461 52 408L24 388L31 368C68 391 103 414 110 414C121 414 128 404 128 389C128 338 87 145 46 2L49 -9L117 6L139 108C163 219 190 278 245 338C287 384 332 414 360 414C367 414 371 406 371 393C371 358 349 244 308 69L292 2L297 -9L366 6L387 113C403 194 437 269 481 318C536 379 586 414 618 414C626 414 631 405 631 389C631 365 628 351 606 264C566 105 550 84 550 31C550 6 561 -9 580 -9C606 -9 642 12 740 85Z" stroke="rgb(208,2,27)" stroke-opacity="1" stroke-width="8" fill="rgb(208,2,27)" fill-opacity="1"></path></g></g><g><g transform="matrix(1,0,0,1,346.33331298828125,239)"><path transform="matrix(0.017,0,0,-0.017,0,0)" d="M51 726L32 700C87 636 187 526 187 266C187 -10 83 -131 32 -194L51 -215C104 -165 273 -23 273 265C273 542 108 675 51 726Z" stroke="rgb(0,0,0)" stroke-opacity="1" stroke-width="8" fill="rgb(0,0,0)" fill-opacity="1"></path></g></g></g></g></g></g></g></svg>
</svg>
