<?xml version="1.0" encoding="UTF-8" standalone="no"?>
<svg
   xmlns:dc="http://purl.org/dc/elements/1.1/"
   xmlns:cc="http://creativecommons.org/ns#"
   xmlns:rdf="http://www.w3.org/1999/02/22-rdf-syntax-ns#"
   xmlns:svg="http://www.w3.org/2000/svg"
   xmlns="http://www.w3.org/2000/svg"
   xmlns:sodipodi="http://sodipodi.sourceforge.net/DTD/sodipodi-0.dtd"
   xmlns:inkscape="http://www.inkscape.org/namespaces/inkscape"
   width="255.516pt"
   height="198.824pt"
   viewBox="0 0 255.516 198.824"
   version="1.2"
   id="svg150"
   sodipodi:docname="lattice.svg"
   inkscape:version="1.0.2 (e86c870879, 2021-01-15, custom)">
  <metadata
     id="metadata154">
    <rdf:RDF>
      <cc:Work
         rdf:about="">
        <dc:format>image/svg+xml</dc:format>
        <dc:type
           rdf:resource="http://purl.org/dc/dcmitype/StillImage" />
        <dc:title></dc:title>
      </cc:Work>
    </rdf:RDF>
  </metadata>
  <sodipodi:namedview
     pagecolor="#ffffff"
     bordercolor="#666666"
     borderopacity="1"
     objecttolerance="10"
     gridtolerance="10"
     guidetolerance="10"
     inkscape:pageopacity="0"
     inkscape:pageshadow="2"
     inkscape:window-width="1276"
     inkscape:window-height="1356"
     id="namedview152"
     showgrid="false"
     inkscape:zoom="4.3564003"
     inkscape:cx="170.344"
     inkscape:cy="132.54934"
     inkscape:window-x="1280"
     inkscape:window-y="26"
     inkscape:window-maximized="0"
     inkscape:current-layer="svg150" />
  <defs
     id="defs5">
    <clipPath
       id="clip1">
      <path
         d="M 0 0 L 255.515625 0 L 255.515625 198.824219 L 0 198.824219 Z M 0 0 "
         id="path2" />
    </clipPath>
  </defs>
  <path
     style="clip-rule:nonzero;fill:none;stroke:#000000;stroke-width:0.3985;stroke-linecap:butt;stroke-linejoin:miter;stroke-miterlimit:10;stroke-opacity:1"
     d="M 0.19922,99.410156 H 255.32031 M 127.75781,198.625 V 0.199219"
     id="path7" />
  <path
     style="fill:#000000;fill-opacity:1;fill-rule:nonzero;stroke:none"
     d="m 4.527344,144.76562 c 0,-0.82421 -0.667969,-1.49218 -1.496094,-1.49218 -0.824219,0 -1.492188,0.66797 -1.492188,1.49218 0,0.82422 0.667969,1.4961 1.492188,1.4961 0.828125,0 1.496094,-0.67188 1.496094,-1.4961 z m 0,0"
     id="path11" />
  <path
     style="fill:#000000;fill-opacity:1;fill-rule:nonzero;stroke:none"
     d="m 10.195312,116.41797 c 0,-0.82422 -0.667968,-1.49219 -1.492187,-1.49219 -0.828125,0 -1.496094,0.66797 -1.496094,1.49219 0,0.82812 0.667969,1.49609 1.496094,1.49609 0.824219,0 1.492187,-0.66797 1.492187,-1.49609 z m 0,0"
     id="path13" />
  <path
     style="fill:#000000;fill-opacity:1;fill-rule:nonzero;stroke:none"
     d="m 15.863281,88.074219 c 0,-0.828125 -0.667969,-1.496094 -1.492187,-1.496094 -0.824219,0 -1.496094,0.667969 -1.496094,1.496094 0,0.824219 0.671875,1.492187 1.496094,1.492187 0.824218,0 1.492187,-0.667968 1.492187,-1.492187 z m 0,0"
     id="path15" />
  <path
     style="fill:#000000;fill-opacity:1;fill-rule:nonzero;stroke:none"
     d="m 21.535156,59.726562 c 0,-0.824218 -0.667968,-1.496093 -1.496094,-1.496093 -0.824218,0 -1.492187,0.671875 -1.492187,1.496093 0,0.824219 0.667969,1.492188 1.492187,1.492188 0.828126,0 1.496094,-0.667969 1.496094,-1.492188 z m 0,0"
     id="path17" />
  <path
     style="fill:#000000;fill-opacity:1;fill-rule:nonzero;stroke:none"
     d="m 27.203125,31.378906 c 0,-0.824218 -0.667969,-1.496094 -1.492187,-1.496094 -0.828126,0 -1.496094,0.671876 -1.496094,1.496094 0,0.824219 0.667968,1.496094 1.496094,1.496094 0.824218,0 1.492187,-0.671875 1.492187,-1.496094 z m 0,0"
     id="path19" />
  <path
     style="fill:#000000;fill-opacity:1;fill-rule:nonzero;stroke:none"
     d="m 27.203125,175.94922 c 0,-0.82813 -0.667969,-1.4961 -1.492187,-1.4961 -0.828126,0 -1.496094,0.66797 -1.496094,1.4961 0,0.82422 0.667968,1.49219 1.496094,1.49219 0.824218,0 1.492187,-0.66797 1.492187,-1.49219 z m 0,0"
     id="path21" />
  <path
     style="fill:#000000;fill-opacity:1;fill-rule:nonzero;stroke:none"
     d="m 32.875,147.60156 c 0,-0.82422 -0.671875,-1.49609 -1.496094,-1.49609 -0.824218,0 -1.496094,0.67187 -1.496094,1.49609 0,0.82422 0.671876,1.49219 1.496094,1.49219 0.824219,0 1.496094,-0.66797 1.496094,-1.49219 z m 0,0"
     id="path23" />
  <path
     style="fill:#000000;fill-opacity:1;fill-rule:nonzero;stroke:none"
     d="m 38.542969,119.25391 c 0,-0.82422 -0.667969,-1.49219 -1.496094,-1.49219 -0.824219,0 -1.492187,0.66797 -1.492187,1.49219 0,0.82422 0.667968,1.49609 1.492187,1.49609 0.828125,0 1.496094,-0.67187 1.496094,-1.49609 z m 0,0"
     id="path25" />
  <path
     style="fill:#000000;fill-opacity:1;fill-rule:nonzero;stroke:none"
     d="m 44.210938,90.90625 c 0,-0.824219 -0.667969,-1.492188 -1.492188,-1.492188 -0.828125,0 -1.496094,0.667969 -1.496094,1.492188 0,0.828125 0.667969,1.496094 1.496094,1.496094 0.824219,0 1.492188,-0.667969 1.492188,-1.496094 z m 0,0"
     id="path27" />
  <path
     style="fill:#000000;fill-opacity:1;fill-rule:nonzero;stroke:none"
     d="m 49.882812,62.5625 c 0,-0.828125 -0.671874,-1.496094 -1.496093,-1.496094 -0.824219,0 -1.496094,0.667969 -1.496094,1.496094 0,0.824219 0.671875,1.492188 1.496094,1.492188 0.824219,0 1.496093,-0.667969 1.496093,-1.492188 z m 0,0"
     id="path29" />
  <path
     style="fill:#000000;fill-opacity:1;fill-rule:nonzero;stroke:none"
     d="m 55.550781,34.214844 c 0,-0.828125 -0.667969,-1.496094 -1.496093,-1.496094 -0.824219,0 -1.492188,0.667969 -1.492188,1.496094 0,0.824218 0.667969,1.492187 1.492188,1.492187 0.828124,0 1.496093,-0.667969 1.496093,-1.492187 z m 0,0"
     id="path31" />
  <path
     style="fill:#000000;fill-opacity:1;fill-rule:nonzero;stroke:none"
     d="m 61.21875,5.867188 c 0,-0.824219 -0.667969,-1.496094 -1.492188,-1.496094 -0.828124,0 -1.496093,0.671875 -1.496093,1.496094 0,0.824218 0.667969,1.496093 1.496093,1.496093 0.824219,0 1.492188,-0.671875 1.492188,-1.496093 z m 0,0"
     id="path33" />
  <path
     style="fill:#000000;fill-opacity:1;fill-rule:nonzero;stroke:none"
     d="m 55.550781,178.78125 c 0,-0.82422 -0.667969,-1.49219 -1.496093,-1.49219 -0.824219,0 -1.492188,0.66797 -1.492188,1.49219 0,0.82812 0.667969,1.49609 1.492188,1.49609 0.828124,0 1.496093,-0.66797 1.496093,-1.49609 z m 0,0"
     id="path35" />
  <path
     style="fill:#000000;fill-opacity:1;fill-rule:nonzero;stroke:none"
     d="m 61.21875,150.4375 c 0,-0.82813 -0.667969,-1.49609 -1.492188,-1.49609 -0.824218,0 -1.496093,0.66796 -1.496093,1.49609 0,0.82422 0.671875,1.49219 1.496093,1.49219 0.824219,0 1.492188,-0.66797 1.492188,-1.49219 z m 0,0"
     id="path37" />
  <path
     style="fill:#000000;fill-opacity:1;fill-rule:nonzero;stroke:none"
     d="m 66.890625,122.08984 c 0,-0.82421 -0.671875,-1.49609 -1.496094,-1.49609 -0.824219,0 -1.492187,0.67188 -1.492187,1.49609 0,0.82422 0.667968,1.49219 1.492187,1.49219 0.824219,0 1.496094,-0.66797 1.496094,-1.49219 z m 0,0"
     id="path39" />
  <path
     style="fill:#000000;fill-opacity:1;fill-rule:nonzero;stroke:none"
     d="m 72.558594,93.742188 c 0,-0.824219 -0.667969,-1.496094 -1.496094,-1.496094 -0.824219,0 -1.492188,0.671875 -1.492188,1.496094 0,0.824218 0.667969,1.496093 1.492188,1.496093 0.828125,0 1.496094,-0.671875 1.496094,-1.496093 z m 0,0"
     id="path41" />
  <path
     style="fill:#000000;fill-opacity:1;fill-rule:nonzero;stroke:none"
     d="m 78.226562,65.394531 c 0,-0.824219 -0.667968,-1.492187 -1.492187,-1.492187 -0.824219,0 -1.496094,0.667968 -1.496094,1.492187 0,0.828125 0.671875,1.496094 1.496094,1.496094 0.824219,0 1.492187,-0.667969 1.492187,-1.496094 z m 0,0"
     id="path43" />
  <path
     style="fill:#000000;fill-opacity:1;fill-rule:nonzero;stroke:none"
     d="m 83.898438,37.046875 c 0,-0.824219 -0.671876,-1.492187 -1.496094,-1.492187 -0.824219,0 -1.492188,0.667968 -1.492188,1.492187 0,0.828125 0.667969,1.496094 1.492188,1.496094 0.824218,0 1.496094,-0.667969 1.496094,-1.496094 z m 0,0"
     id="path45" />
  <path
     style="fill:#000000;fill-opacity:1;fill-rule:nonzero;stroke:none"
     d="m 89.566406,8.703125 c 0,-0.828125 -0.667968,-1.496094 -1.496094,-1.496094 -0.824218,0 -1.492187,0.667969 -1.492187,1.496094 0,0.824219 0.667969,1.492187 1.492187,1.492187 0.828126,0 1.496094,-0.667968 1.496094,-1.492187 z m 0,0"
     id="path47" />
  <path
     style="fill:#000000;fill-opacity:1;fill-rule:nonzero;stroke:none"
     d="m 83.898438,181.61719 c 0,-0.82422 -0.667969,-1.49219 -1.496094,-1.49219 -0.824219,0 -1.492188,0.66797 -1.492188,1.49219 0,0.82422 0.667969,1.49609 1.492188,1.49609 0.828125,0 1.496094,-0.67187 1.496094,-1.49609 z m 0,0"
     id="path49" />
  <path
     style="fill:#000000;fill-opacity:1;fill-rule:nonzero;stroke:none"
     d="m 89.566406,153.26953 c 0,-0.82422 -0.667968,-1.49219 -1.492187,-1.49219 -0.828125,0 -1.496094,0.66797 -1.496094,1.49219 0,0.82813 0.667969,1.49609 1.496094,1.49609 0.824219,0 1.492187,-0.66796 1.492187,-1.49609 z m 0,0"
     id="path51" />
  <path
     style="fill:#000000;fill-opacity:1;fill-rule:nonzero;stroke:none"
     d="m 95.238281,124.92578 c 0,-0.82812 -0.671875,-1.49609 -1.496093,-1.49609 -0.824219,0 -1.496094,0.66797 -1.496094,1.49609 0,0.82422 0.671875,1.49219 1.496094,1.49219 0.824218,0 1.496093,-0.66797 1.496093,-1.49219 z m 0,0"
     id="path53" />
  <path
     style="fill:#000000;fill-opacity:1;fill-rule:nonzero;stroke:none"
     d="m 100.90625,96.578125 c 0,-0.828125 -0.66797,-1.496094 -1.496094,-1.496094 -0.824218,0 -1.492187,0.667969 -1.492187,1.496094 0,0.824219 0.667969,1.492187 1.492187,1.492187 0.828124,0 1.496094,-0.667968 1.496094,-1.492187 z m 0,0"
     id="path55" />
  <path
     style="fill:#000000;fill-opacity:1;fill-rule:nonzero;stroke:none"
     d="m 106.57422,68.230469 c 0,-0.824219 -0.66797,-1.496094 -1.49219,-1.496094 -0.82812,0 -1.49609,0.671875 -1.49609,1.496094 0,0.824219 0.66797,1.496093 1.49609,1.496093 0.82422,0 1.49219,-0.671874 1.49219,-1.496093 z m 0,0"
     id="path57" />
  <path
     style="fill:#000000;fill-opacity:1;fill-rule:nonzero;stroke:none"
     d="m 112.24609,39.882812 c 0,-0.824218 -0.67187,-1.492187 -1.49609,-1.492187 -0.82422,0 -1.49609,0.667969 -1.49609,1.492187 0,0.824219 0.67187,1.496094 1.49609,1.496094 0.82422,0 1.49609,-0.671875 1.49609,-1.496094 z m 0,0"
     id="path59" />
  <path
     style="fill:#000000;fill-opacity:1;fill-rule:nonzero;stroke:none"
     d="m 117.91406,11.535156 c 0,-0.824218 -0.66797,-1.492187 -1.49609,-1.492187 -0.82422,0 -1.49219,0.667969 -1.49219,1.492187 0,0.828125 0.66797,1.496094 1.49219,1.496094 0.82812,0 1.49609,-0.667969 1.49609,-1.496094 z m 0,0"
     id="path61" />
  <path
     style="fill:#000000;fill-opacity:1;fill-rule:nonzero;stroke:none"
     d="m 112.24609,184.45312 c 0,-0.82421 -0.67187,-1.49609 -1.49609,-1.49609 -0.82422,0 -1.49609,0.67188 -1.49609,1.49609 0,0.82422 0.67187,1.49219 1.49609,1.49219 0.82422,0 1.49609,-0.66797 1.49609,-1.49219 z m 0,0"
     id="path63" />
  <path
     style="fill:#000000;fill-opacity:1;fill-rule:nonzero;stroke:none"
     d="m 117.91406,156.10547 c 0,-0.82422 -0.66797,-1.4961 -1.49609,-1.4961 -0.82422,0 -1.49219,0.67188 -1.49219,1.4961 0,0.82422 0.66797,1.49609 1.49219,1.49609 0.82812,0 1.49609,-0.67187 1.49609,-1.49609 z m 0,0"
     id="path65" />
  <path
     style="fill:#000000;fill-opacity:1;fill-rule:nonzero;stroke:none"
     d="m 123.58203,127.75781 c 0,-0.82422 -0.66797,-1.49218 -1.49219,-1.49218 -0.82812,0 -1.49609,0.66796 -1.49609,1.49218 0,0.82813 0.66797,1.4961 1.49609,1.4961 0.82422,0 1.49219,-0.66797 1.49219,-1.4961 z m 0,0"
     id="path67" />
  <path
     style="fill:#000000;fill-opacity:1;fill-rule:nonzero;stroke:none"
     d="m 129.25391,99.410156 c 0,-0.824218 -0.67188,-1.492187 -1.4961,-1.492187 -0.82422,0 -1.49609,0.667969 -1.49609,1.492187 0,0.828124 0.67187,1.496094 1.49609,1.496094 0.82422,0 1.4961,-0.66797 1.4961,-1.496094 z m 0,0"
     id="path69" />
  <path
     style="fill:#000000;fill-opacity:1;fill-rule:nonzero;stroke:none"
     d="m 134.92187,71.066406 c 0,-0.828125 -0.66796,-1.496094 -1.49609,-1.496094 -0.82422,0 -1.49219,0.667969 -1.49219,1.496094 0,0.824219 0.66797,1.492188 1.49219,1.492188 0.82813,0 1.49609,-0.667969 1.49609,-1.492188 z m 0,0"
     id="path71" />
  <path
     style="fill:#000000;fill-opacity:1;fill-rule:nonzero;stroke:none"
     d="m 140.58984,42.71875 c 0,-0.824219 -0.66797,-1.496094 -1.49218,-1.496094 -0.82813,0 -1.4961,0.671875 -1.4961,1.496094 0,0.824219 0.66797,1.492188 1.4961,1.492188 0.82421,0 1.49218,-0.667969 1.49218,-1.492188 z m 0,0"
     id="path73" />
  <path
     style="fill:#000000;fill-opacity:1;fill-rule:nonzero;stroke:none"
     d="m 146.26172,14.371094 c 0,-0.824219 -0.67188,-1.492188 -1.4961,-1.492188 -0.82421,0 -1.49609,0.667969 -1.49609,1.492188 0,0.824218 0.67188,1.496094 1.49609,1.496094 0.82422,0 1.4961,-0.671876 1.4961,-1.496094 z m 0,0"
     id="path75" />
  <path
     style="fill:#000000;fill-opacity:1;fill-rule:nonzero;stroke:none"
     d="m 140.58984,187.28906 c 0,-0.82812 -0.66797,-1.49609 -1.49218,-1.49609 -0.82422,0 -1.4961,0.66797 -1.4961,1.49609 0,0.82422 0.67188,1.49219 1.4961,1.49219 0.82421,0 1.49218,-0.66797 1.49218,-1.49219 z m 0,0"
     id="path77" />
  <path
     style="fill:#000000;fill-opacity:1;fill-rule:nonzero;stroke:none"
     d="m 146.26172,158.94141 c 0,-0.82813 -0.67188,-1.4961 -1.4961,-1.4961 -0.82421,0 -1.49218,0.66797 -1.49218,1.4961 0,0.82421 0.66797,1.49218 1.49218,1.49218 0.82422,0 1.4961,-0.66797 1.4961,-1.49218 z m 0,0"
     id="path79" />
  <path
     style="fill:#000000;fill-opacity:1;fill-rule:nonzero;stroke:none"
     d="m 151.92969,130.59375 c 0,-0.82422 -0.66797,-1.49609 -1.4961,-1.49609 -0.82422,0 -1.49218,0.67187 -1.49218,1.49609 0,0.82422 0.66796,1.49609 1.49218,1.49609 0.82813,0 1.4961,-0.67187 1.4961,-1.49609 z m 0,0"
     id="path81" />
  <path
     style="fill:#000000;fill-opacity:1;fill-rule:nonzero;stroke:none"
     d="m 157.59766,102.24609 c 0,-0.82421 -0.66797,-1.49218 -1.49219,-1.49218 -0.82422,0 -1.4961,0.66797 -1.4961,1.49218 0,0.82422 0.67188,1.4961 1.4961,1.4961 0.82422,0 1.49219,-0.67188 1.49219,-1.4961 z m 0,0"
     id="path83" />
  <path
     style="fill:#000000;fill-opacity:1;fill-rule:nonzero;stroke:none"
     d="m 163.26953,73.898438 c 0,-0.824219 -0.67187,-1.492188 -1.49609,-1.492188 -0.82422,0 -1.49219,0.667969 -1.49219,1.492188 0,0.828124 0.66797,1.496093 1.49219,1.496093 0.82422,0 1.49609,-0.667969 1.49609,-1.496093 z m 0,0"
     id="path85" />
  <path
     style="fill:#000000;fill-opacity:1;fill-rule:nonzero;stroke:none"
     d="m 168.9375,45.554688 c 0,-0.828126 -0.66797,-1.496094 -1.49609,-1.496094 -0.82422,0 -1.49219,0.667968 -1.49219,1.496094 0,0.824218 0.66797,1.492187 1.49219,1.492187 0.82812,0 1.49609,-0.667969 1.49609,-1.492187 z m 0,0"
     id="path87" />
  <path
     style="fill:#000000;fill-opacity:1;fill-rule:nonzero;stroke:none"
     d="m 174.60547,17.207031 c 0,-0.824219 -0.66797,-1.496093 -1.49219,-1.496093 -0.82422,0 -1.49609,0.671874 -1.49609,1.496093 0,0.824219 0.67187,1.492188 1.49609,1.492188 0.82422,0 1.49219,-0.667969 1.49219,-1.492188 z m 0,0"
     id="path89" />
  <path
     style="fill:#000000;fill-opacity:1;fill-rule:nonzero;stroke:none"
     d="m 168.9375,190.12109 c 0,-0.82422 -0.66797,-1.49218 -1.49219,-1.49218 -0.82812,0 -1.49609,0.66796 -1.49609,1.49218 0,0.82813 0.66797,1.4961 1.49609,1.4961 0.82422,0 1.49219,-0.66797 1.49219,-1.4961 z m 0,0"
     id="path91" />
  <path
     style="fill:#000000;fill-opacity:1;fill-rule:nonzero;stroke:none"
     d="m 174.60937,161.77344 c 0,-0.82422 -0.67187,-1.49219 -1.49609,-1.49219 -0.82422,0 -1.49609,0.66797 -1.49609,1.49219 0,0.82812 0.67187,1.49609 1.49609,1.49609 0.82422,0 1.49609,-0.66797 1.49609,-1.49609 z m 0,0"
     id="path93" />
  <path
     style="fill:#000000;fill-opacity:1;fill-rule:nonzero;stroke:none"
     d="m 180.27734,133.42969 c 0,-0.82813 -0.66797,-1.4961 -1.49609,-1.4961 -0.82422,0 -1.49219,0.66797 -1.49219,1.4961 0,0.82422 0.66797,1.49218 1.49219,1.49218 0.82812,0 1.49609,-0.66796 1.49609,-1.49218 z m 0,0"
     id="path95" />
  <path
     style="fill:#000000;fill-opacity:1;fill-rule:nonzero;stroke:none"
     d="m 185.94531,105.08203 c 0,-0.82422 -0.66797,-1.49609 -1.49219,-1.49609 -0.82812,0 -1.49609,0.67187 -1.49609,1.49609 0,0.82422 0.66797,1.49219 1.49609,1.49219 0.82422,0 1.49219,-0.66797 1.49219,-1.49219 z m 0,0"
     id="path97" />
  <path
     style="fill:#000000;fill-opacity:1;fill-rule:nonzero;stroke:none"
     d="m 191.61719,76.734375 c 0,-0.824219 -0.67188,-1.492187 -1.4961,-1.492187 -0.82422,0 -1.49609,0.667968 -1.49609,1.492187 0,0.824219 0.67187,1.496094 1.49609,1.496094 0.82422,0 1.4961,-0.671875 1.4961,-1.496094 z m 0,0"
     id="path99" />
  <path
     style="fill:#000000;fill-opacity:1;fill-rule:nonzero;stroke:none"
     d="m 197.28516,48.386719 c 0,-0.824219 -0.66797,-1.492188 -1.4961,-1.492188 -0.82422,0 -1.49219,0.667969 -1.49219,1.492188 0,0.828125 0.66797,1.496093 1.49219,1.496093 0.82813,0 1.4961,-0.667968 1.4961,-1.496093 z m 0,0"
     id="path101" />
  <path
     style="fill:#000000;fill-opacity:1;fill-rule:nonzero;stroke:none"
     d="m 202.95312,20.042969 c 0,-0.828125 -0.66796,-1.496094 -1.49218,-1.496094 -0.82813,0 -1.4961,0.667969 -1.4961,1.496094 0,0.824219 0.66797,1.492187 1.4961,1.492187 0.82422,0 1.49218,-0.667968 1.49218,-1.492187 z m 0,0"
     id="path103" />
  <path
     style="fill:#000000;fill-opacity:1;fill-rule:nonzero;stroke:none"
     d="m 197.28516,192.95703 c 0,-0.82422 -0.66797,-1.49609 -1.4961,-1.49609 -0.82422,0 -1.49219,0.67187 -1.49219,1.49609 0,0.82422 0.66797,1.49609 1.49219,1.49609 0.82813,0 1.4961,-0.67187 1.4961,-1.49609 z m 0,0"
     id="path105" />
  <path
     style="fill:#000000;fill-opacity:1;fill-rule:nonzero;stroke:none"
     d="m 202.95312,164.60937 c 0,-0.82421 -0.66796,-1.49218 -1.49218,-1.49218 -0.82813,0 -1.4961,0.66797 -1.4961,1.49218 0,0.82422 0.66797,1.4961 1.4961,1.4961 0.82422,0 1.49218,-0.67188 1.49218,-1.4961 z m 0,0"
     id="path107" />
  <path
     style="fill:#000000;fill-opacity:1;fill-rule:nonzero;stroke:none"
     d="m 208.625,136.26172 c 0,-0.82422 -0.67188,-1.49219 -1.49609,-1.49219 -0.82422,0 -1.4961,0.66797 -1.4961,1.49219 0,0.82812 0.67188,1.49609 1.4961,1.49609 0.82421,0 1.49609,-0.66797 1.49609,-1.49609 z m 0,0"
     id="path109" />
  <path
     style="fill:#000000;fill-opacity:1;fill-rule:nonzero;stroke:none"
     d="m 214.29297,107.91797 c 0,-0.82813 -0.66797,-1.49609 -1.4961,-1.49609 -0.82421,0 -1.49218,0.66796 -1.49218,1.49609 0,0.82422 0.66797,1.49219 1.49218,1.49219 0.82813,0 1.4961,-0.66797 1.4961,-1.49219 z m 0,0"
     id="path111" />
  <path
     style="fill:#000000;fill-opacity:1;fill-rule:nonzero;stroke:none"
     d="m 219.96094,79.570312 c 0,-0.824218 -0.66797,-1.496093 -1.49219,-1.496093 -0.82813,0 -1.49609,0.671875 -1.49609,1.496093 0,0.824219 0.66796,1.492188 1.49609,1.492188 0.82422,0 1.49219,-0.667969 1.49219,-1.492188 z m 0,0"
     id="path113" />
  <path
     style="fill:#000000;fill-opacity:1;fill-rule:nonzero;stroke:none"
     d="m 225.63281,51.222656 c 0,-0.824218 -0.67187,-1.492187 -1.49609,-1.492187 -0.82422,0 -1.4961,0.667969 -1.4961,1.492187 0,0.824219 0.67188,1.496094 1.4961,1.496094 0.82422,0 1.49609,-0.671875 1.49609,-1.496094 z m 0,0"
     id="path115" />
  <path
     style="fill:#000000;fill-opacity:1;fill-rule:nonzero;stroke:none"
     d="m 231.30078,22.875 c 0,-0.824219 -0.66797,-1.492188 -1.49609,-1.492188 -0.82422,0 -1.49219,0.667969 -1.49219,1.492188 0,0.828125 0.66797,1.496094 1.49219,1.496094 0.82812,0 1.49609,-0.667969 1.49609,-1.496094 z m 0,0"
     id="path117" />
  <path
     style="fill:#000000;fill-opacity:1;fill-rule:nonzero;stroke:none"
     d="m 231.30078,167.44531 c 0,-0.82422 -0.66797,-1.49609 -1.49219,-1.49609 -0.82812,0 -1.49609,0.67187 -1.49609,1.49609 0,0.82422 0.66797,1.49219 1.49609,1.49219 0.82422,0 1.49219,-0.66797 1.49219,-1.49219 z m 0,0"
     id="path119" />
  <path
     style="fill:#000000;fill-opacity:1;fill-rule:nonzero;stroke:none"
     d="m 236.96875,139.09766 c 0,-0.82422 -0.66797,-1.49219 -1.49219,-1.49219 -0.82422,0 -1.49609,0.66797 -1.49609,1.49219 0,0.82421 0.67187,1.49609 1.49609,1.49609 0.82422,0 1.49219,-0.67188 1.49219,-1.49609 z m 0,0"
     id="path121" />
  <path
     style="fill:#000000;fill-opacity:1;fill-rule:nonzero;stroke:none"
     d="m 242.64062,110.75 c 0,-0.82422 -0.67187,-1.49219 -1.49609,-1.49219 -0.82422,0 -1.49219,0.66797 -1.49219,1.49219 0,0.82813 0.66797,1.49609 1.49219,1.49609 0.82422,0 1.49609,-0.66796 1.49609,-1.49609 z m 0,0"
     id="path123" />
  <path
     style="fill:#000000;fill-opacity:1;fill-rule:nonzero;stroke:none"
     d="m 248.30859,82.40625 c 0,-0.828125 -0.66797,-1.496094 -1.49218,-1.496094 -0.82813,0 -1.4961,0.667969 -1.4961,1.496094 0,0.824219 0.66797,1.492188 1.4961,1.492188 0.82421,0 1.49218,-0.667969 1.49218,-1.492188 z m 0,0"
     id="path125" />
  <path
     style="fill:#000000;fill-opacity:1;fill-rule:nonzero;stroke:none"
     d="m 253.97656,54.058594 c 0,-0.824219 -0.66797,-1.496094 -1.49219,-1.496094 -0.82421,0 -1.49609,0.671875 -1.49609,1.496094 0,0.824218 0.67188,1.492187 1.49609,1.492187 0.82422,0 1.49219,-0.667969 1.49219,-1.492187 z m 0,0"
     id="path127" />
  <path
     style="fill:none;stroke:#ff0000;stroke-width:0.3985;stroke-linecap:butt;stroke-linejoin:miter;stroke-miterlimit:10;stroke-opacity:1"
     d="m 127.75781,99.410156 27.89063,2.792974"
     id="path129" />
  <path
     style="fill:none;stroke:#ff0000;stroke-width:0.318771;stroke-linecap:round;stroke-linejoin:round;stroke-miterlimit:10;stroke-opacity:1"
     d="m 154.61719,100.49609 c 0.0391,0.60547 1.04297,1.60547 1.32812,1.73438 -0.30469,0.0703 -1.48437,0.85156 -1.64453,1.4375"
     id="path131" />
  <path
     style="fill:none;stroke:#ff0000;stroke-width:0.3985;stroke-linecap:butt;stroke-linejoin:miter;stroke-miterlimit:10;stroke-opacity:1"
     d="m 127.75781,99.410156 5.57813,-27.894531"
     id="path133" />
  <path
     style="fill:none;stroke:#ff0000;stroke-width:0.318779;stroke-linecap:round;stroke-linejoin:round;stroke-miterlimit:10;stroke-opacity:1"
     d="m 131.53906,72.375 c 0.60547,0.01953 1.69922,-0.878906 1.85547,-1.152344 0.0391,0.3125 0.70313,1.562501 1.26953,1.777344"
     id="path135" />
  <path
     style="fill:#ff0000;fill-opacity:0.2;fill-rule:nonzero;stroke:none"
     d="m 127.75781,99.410156 28.34766,2.835934 5.66797,-28.347652 -28.34766,-2.832032 -5.66797,28.34375"
     id="path137" />
  <path
     style="fill:none;stroke:#00ca00;stroke-width:0.3985;stroke-linecap:butt;stroke-linejoin:miter;stroke-miterlimit:10;stroke-opacity:1"
     d="M 127.75781,99.410156 201.14844,20.375"
     id="path139" />
  <path
     style="fill:none;stroke:#00ca00;stroke-width:0.318778;stroke-linecap:round;stroke-linejoin:round;stroke-miterlimit:10;stroke-opacity:1"
     d="m 199.16797,20.167969 c 0.5039,0.332031 1.90625,0.140624 2.18359,-0.01172 -0.1289,0.289063 -0.21875,1.703125 0.15235,2.179687"
     id="path141" />
  <path
     style="fill:none;stroke:#00ca00;stroke-width:0.3985;stroke-linecap:butt;stroke-linejoin:miter;stroke-miterlimit:10;stroke-opacity:1"
     d="M 127.75781,99.410156 88.34375,152.90234"
     id="path143" />
  <path
     style="fill:none;stroke:#00ca00;stroke-width:0.318775;stroke-linecap:round;stroke-linejoin:round;stroke-miterlimit:10;stroke-opacity:1"
     d="m 90.335937,152.88672 c -0.539062,-0.27734 -1.910156,0.0742 -2.167968,0.2539 0.09766,-0.29687 0.02344,-1.71093 -0.398438,-2.14843"
     id="path145" />
  <path
     style="fill:#00ca00;fill-opacity:0.2;fill-rule:nonzero;stroke:none"
     d="M 127.75781,99.410156 201.46094,20.039062 161.77344,73.898438 88.074219,153.26953 127.75781,99.410156"
     id="path147" />
</svg>
